<svg width="25" height="25" viewBox="0 0 25 25" fill="none" xmlns="http://www.w3.org/2000/svg">
<g clip-path="url(#clip0_7_142)">
<path d="M17.3211 0.0122023C17.2709 -0.045708 15.4625 0.0350617 13.8888 1.79828C12.3151 3.55997 12.5572 5.58074 12.5926 5.63255C12.6281 5.68437 14.8366 5.76514 16.2464 3.71542C17.6562 1.66569 17.3713 0.0716366 17.3211 0.0122023ZM22.2135 17.8928C22.1426 17.7465 18.7812 16.0122 19.0941 12.6778C19.4071 9.34186 21.5669 8.42749 21.6008 8.32843C21.6348 8.22937 20.7195 7.12451 19.7496 6.56521C19.0375 6.17089 18.2493 5.94498 17.4422 5.90382C17.2827 5.89924 16.7291 5.75904 15.5909 6.0806C14.841 6.29243 13.1507 6.97821 12.6856 7.00564C12.2191 7.03307 10.8314 6.21013 9.33893 5.99221C8.38379 5.80171 7.37107 6.19184 6.64622 6.49206C5.92285 6.79076 4.54696 7.64113 3.58443 9.90115C2.62191 12.1597 3.12531 15.7379 3.48552 16.8504C3.84573 17.9614 4.40819 19.7825 5.36482 21.1114C6.21515 22.6109 7.34302 23.6518 7.81395 24.0054C8.28488 24.3589 9.61352 24.5936 10.5347 24.1075C11.2758 23.6381 12.6133 23.3684 13.1418 23.3882C13.6688 23.408 14.7081 23.6229 15.7725 24.2096C16.6155 24.5098 17.4127 24.3848 18.2113 24.0496C19.01 23.7128 20.1659 22.4357 21.5152 19.8465C22.0275 18.6426 22.2607 17.9918 22.2135 17.8928Z" fill="white"/>
<path d="M17.3211 0.0122023C17.2709 -0.045708 15.4625 0.0350617 13.8888 1.79828C12.3151 3.55997 12.5572 5.58074 12.5926 5.63255C12.6281 5.68437 14.8366 5.76514 16.2464 3.71542C17.6562 1.66569 17.3713 0.0716366 17.3211 0.0122023ZM22.2135 17.8928C22.1426 17.7465 18.7812 16.0122 19.0941 12.6778C19.4071 9.34186 21.5669 8.42749 21.6008 8.32843C21.6348 8.22937 20.7195 7.12451 19.7496 6.56521C19.0375 6.17089 18.2493 5.94498 17.4422 5.90382C17.2827 5.89924 16.7291 5.75904 15.5909 6.0806C14.841 6.29243 13.1507 6.97821 12.6856 7.00564C12.2191 7.03307 10.8314 6.21013 9.33893 5.99221C8.38379 5.80171 7.37107 6.19184 6.64622 6.49206C5.92285 6.79076 4.54696 7.64113 3.58443 9.90115C2.62191 12.1597 3.12531 15.7379 3.48552 16.8504C3.84573 17.9614 4.40819 19.7825 5.36482 21.1114C6.21515 22.6109 7.34302 23.6518 7.81395 24.0054C8.28488 24.3589 9.61352 24.5936 10.5347 24.1075C11.2758 23.6381 12.6133 23.3684 13.1418 23.3882C13.6688 23.408 14.7081 23.6229 15.7725 24.2096C16.6155 24.5098 17.4127 24.3848 18.2113 24.0496C19.01 23.7128 20.1659 22.4357 21.5152 19.8465C22.0275 18.6426 22.2607 17.9918 22.2135 17.8928Z" fill="white"/>
</g>
<defs>
<clipPath id="clip0_7_142">
<rect width="23.6203" height="24.3833" fill="white" transform="translate(0.813477)"/>
</clipPath>
</defs>
</svg>
