<svg width="26" height="26" viewBox="0 0 26 26" fill="none" xmlns="http://www.w3.org/2000/svg">
<g clip-path="url(#clip0_26_71)">
<path d="M18.1421 0.306948C18.0896 0.246399 16.1988 0.330849 14.5534 2.17439C12.908 4.01635 13.1611 6.12918 13.1982 6.18335C13.2352 6.23753 15.5443 6.32198 17.0184 4.17887C18.4925 2.03577 18.1946 0.36909 18.1421 0.306948V0.306948ZM23.2573 19.0021C23.1832 18.8492 19.6686 17.0359 19.9959 13.5496C20.3231 10.0617 22.5813 9.10562 22.6168 9.00205C22.6523 8.89848 21.6953 7.74328 20.6812 7.1585C19.9366 6.74622 19.1125 6.51001 18.2687 6.46697C18.1019 6.46219 17.5231 6.3156 16.3331 6.65181C15.549 6.87329 13.7816 7.59031 13.2954 7.61899C12.8077 7.64767 11.3567 6.78724 9.79623 6.55939C8.79757 6.36022 7.73871 6.76812 6.98084 7.08202C6.22451 7.39432 4.78595 8.28343 3.77957 10.6464C2.77319 13.0078 3.29953 16.7491 3.67615 17.9123C4.05277 19.0738 4.64085 20.9779 5.64106 22.3674C6.53013 23.9353 7.70939 25.0235 8.20177 25.3932C8.69416 25.7629 10.0833 26.0082 11.0465 25.5C11.8213 25.0092 13.2198 24.7272 13.7724 24.7479C14.3234 24.7686 15.41 24.9933 16.5229 25.6067C17.4043 25.9206 18.2378 25.79 19.0728 25.4394C19.9079 25.0873 21.1165 23.752 22.5272 21.0449C23.0628 19.7861 23.3067 19.1057 23.2573 19.0021V19.0021Z" fill="#FE6916"/>
<path d="M18.1421 0.306948C18.0896 0.246399 16.1988 0.330849 14.5534 2.17439C12.908 4.01635 13.1611 6.12918 13.1982 6.18335C13.2352 6.23753 15.5443 6.32198 17.0184 4.17887C18.4925 2.03577 18.1946 0.36909 18.1421 0.306948V0.306948ZM23.2573 19.0021C23.1832 18.8492 19.6686 17.0359 19.9959 13.5496C20.3231 10.0617 22.5813 9.10562 22.6168 9.00205C22.6523 8.89848 21.6953 7.74328 20.6812 7.1585C19.9366 6.74622 19.1125 6.51001 18.2687 6.46697C18.1019 6.46219 17.5231 6.3156 16.3331 6.65181C15.549 6.87329 13.7816 7.59031 13.2954 7.61899C12.8077 7.64767 11.3567 6.78724 9.79623 6.55939C8.79757 6.36022 7.73871 6.76812 6.98084 7.08202C6.22451 7.39432 4.78595 8.28343 3.77957 10.6464C2.77319 13.0078 3.29953 16.7491 3.67615 17.9123C4.05277 19.0738 4.64085 20.9779 5.64106 22.3674C6.53013 23.9353 7.70939 25.0235 8.20177 25.3932C8.69416 25.7629 10.0833 26.0082 11.0465 25.5C11.8213 25.0092 13.2198 24.7272 13.7724 24.7479C14.3234 24.7686 15.41 24.9933 16.5229 25.6067C17.4043 25.9206 18.2378 25.79 19.0728 25.4394C19.9079 25.0873 21.1165 23.752 22.5272 21.0449C23.0628 19.7861 23.3067 19.1057 23.2573 19.0021V19.0021Z" fill="#FE6916"/>
</g>
<defs>
<clipPath id="clip0_26_71">
<rect width="24.6964" height="25.4942" fill="white" transform="translate(0.882368 0.294189)"/>
</clipPath>
</defs>
</svg>
