<svg width="59" height="59" viewBox="0 0 59 59" fill="none" xmlns="http://www.w3.org/2000/svg">
<g clip-path="url(#clip0_12_19)">
<path d="M0 22.125C0 16.2571 2.33102 10.6295 6.48026 6.48026C10.6295 2.33102 16.2571 0 22.125 0C27.9929 0 33.6205 2.33102 37.7697 6.48026C41.919 10.6295 44.25 16.2571 44.25 22.125C44.25 27.9929 41.919 33.6205 37.7697 37.7697C33.6205 41.919 27.9929 44.25 22.125 44.25C16.2571 44.25 10.6295 41.919 6.48026 37.7697C2.33102 33.6205 0 27.9929 0 22.125H0Z" fill="#FE6916"/>
<path d="M47.6794 18.4375H53.4688C53.9577 18.4375 54.4267 18.6318 54.7725 18.9775C55.1182 19.3233 55.3125 19.7923 55.3125 20.2812V53.4688C55.3125 53.9577 55.1182 54.4267 54.7725 54.7725C54.4267 55.1182 53.9577 55.3125 53.4688 55.3125H20.2812C19.7923 55.3125 19.3233 55.1182 18.9775 54.7725C18.6318 54.4267 18.4375 53.9577 18.4375 53.4688V47.6794C17.1901 47.5 15.9576 47.2288 14.75 46.8681V53.4688C14.75 54.9357 15.3328 56.3426 16.3701 57.3799C17.4074 58.4172 18.8143 59 20.2812 59H53.4688C54.9357 59 56.3426 58.4172 57.3799 57.3799C58.4172 56.3426 59 54.9357 59 53.4688V20.2812C59 18.8143 58.4172 17.4074 57.3799 16.3701C56.3426 15.3328 54.9357 14.75 53.4688 14.75H46.8681C47.2258 15.9447 47.495 17.1764 47.6794 18.4375Z" fill="#FE6916"/>
</g>
<defs>
<clipPath id="clip0_12_19">
<rect width="59" height="59" fill="white"/>
</clipPath>
</defs>
</svg>
