<svg width="27" height="27" viewBox="0 0 27 27" fill="none" xmlns="http://www.w3.org/2000/svg">
<g clip-path="url(#clip0_26_29)">
<path d="M26.9998 13.5827C26.9998 6.08004 20.9552 -0.00170898 13.4998 -0.00170898C6.04108 -2.14843e-05 -0.00354004 6.08004 -0.00354004 13.5844C-0.00354004 20.363 4.93409 25.9824 11.3871 27.0017V17.5095H7.96146V13.5844H11.3905V10.589C11.3905 7.18535 13.407 5.30548 16.4901 5.30548C17.9683 5.30548 19.5124 5.57042 19.5124 5.57042V8.91167H17.8097C16.134 8.91167 15.6109 9.9596 15.6109 11.0345V13.5827H19.3538L18.7564 17.5078H15.6092V27C22.0622 25.9807 26.9998 20.3614 26.9998 13.5827Z" fill="white"/>
</g>
<defs>
<clipPath id="clip0_26_29">
<rect width="27" height="27" fill="white"/>
</clipPath>
</defs>
</svg>
