<svg width="59" height="59" viewBox="0 0 59 59" fill="none" xmlns="http://www.w3.org/2000/svg">
<g clip-path="url(#clip0_18_133)">
<path fill-rule="evenodd" clip-rule="evenodd" d="M51.625 16.5938V51.625C51.625 53.581 50.848 55.4568 49.4649 56.8399C48.0818 58.223 46.206 59 44.25 59V55.3125C45.228 55.3125 46.1659 54.924 46.8575 54.2325C47.549 53.5409 47.9375 52.603 47.9375 51.625V16.5938H40.5625C39.0955 16.5938 37.6886 16.011 36.6513 14.9737C35.614 13.9364 35.0312 12.5295 35.0312 11.0625V3.6875H14.75C13.772 3.6875 12.8341 4.076 12.1425 4.76754C11.451 5.45908 11.0625 6.39701 11.0625 7.375V40.5625H7.375V7.375C7.375 5.41903 8.15201 3.54317 9.53509 2.16009C10.9182 0.777007 12.794 0 14.75 0L35.0312 0L51.625 16.5938ZM0 54.7262C0.0211098 55.3072 0.163577 55.8774 0.418241 56.4C0.672905 56.9227 1.03413 57.3863 1.47869 57.761C1.95806 58.1592 2.54069 58.469 3.24131 58.6903C3.94194 58.9152 4.75688 59.0258 5.6935 59.0258C6.93988 59.0258 7.9945 58.8304 8.85738 58.4432C9.73131 58.056 10.3914 57.5139 10.8486 56.8207C11.3136 56.1007 11.5537 55.2586 11.5382 54.4017C11.5382 53.5757 11.3722 52.8898 11.0404 52.3367C10.703 51.7841 10.2261 51.3301 9.65756 51.0203C9.00556 50.6597 8.30332 50.3987 7.57412 50.2459L5.28419 49.7149C4.7431 49.6162 4.23204 49.3941 3.79075 49.0659C3.62318 48.9357 3.48827 48.7683 3.39673 48.5769C3.3052 48.3855 3.25956 48.1754 3.26344 47.9633C3.26344 47.3881 3.48837 46.9161 3.94194 46.5473C4.40287 46.1749 5.03344 45.9868 5.83362 45.9868C6.36094 45.9868 6.8145 46.0716 7.198 46.2376C7.54958 46.3821 7.85995 46.6114 8.10144 46.905C8.32839 47.1787 8.48081 47.5064 8.54394 47.8564H11.3096C11.2646 47.1058 11.0104 46.3828 10.5758 45.7692C10.1097 45.1074 9.47235 44.5848 8.732 44.2574C7.8265 43.8601 6.84415 43.6687 5.85575 43.6969C4.77531 43.6969 3.82025 43.8812 2.99425 44.25C2.16456 44.6151 1.51925 45.135 1.04725 45.8024C0.578938 46.4736 0.346625 47.259 0.346625 48.1588C0.346625 48.8999 0.494125 49.5452 0.800187 50.091C1.10256 50.6404 1.534 51.0866 2.0945 51.4443C2.65869 51.7946 3.31875 52.0601 4.08575 52.2297L6.36462 52.7607C7.12794 52.9414 7.69212 53.1774 8.06825 53.4724C8.25268 53.6121 8.4004 53.7945 8.49869 54.0039C8.59697 54.2133 8.64287 54.4435 8.63244 54.6746C8.63793 55.0544 8.52869 55.4271 8.319 55.7439C8.08057 56.0682 7.7524 56.3157 7.375 56.4556C6.96569 56.6289 6.45681 56.7137 5.85206 56.7137C5.42063 56.7137 5.02606 56.6658 4.67206 56.5662C4.34605 56.476 4.0371 56.3327 3.75756 56.1422C3.51207 55.9833 3.30191 55.7756 3.14014 55.532C2.97837 55.2884 2.86846 55.0141 2.81725 54.7262H0ZM16.8703 58.7456H20.3808L25.2741 43.9993H22.0328L18.762 55.5706H18.6219L15.3142 43.9993H11.9328L16.8703 58.7493V58.7456ZM37.0889 46.6026C37.3691 47.1631 37.5424 47.7679 37.6051 48.4169H34.7436C34.6781 48.0931 34.5584 47.7827 34.3896 47.4987C34.2261 47.2282 34.0135 46.9906 33.7627 46.7981C33.5038 46.5888 33.2071 46.4311 32.8888 46.3334C32.5309 46.2213 32.1576 46.1665 31.7826 46.1712C30.7353 46.1712 29.9167 46.5399 29.3341 47.2848C28.7551 48.0223 28.4675 49.0696 28.4675 50.4192V52.2519C28.4675 53.1184 28.5892 53.8744 28.8252 54.5234C29.0406 55.1314 29.4321 55.6616 29.9499 56.0463C30.5137 56.4231 31.1824 56.6116 31.86 56.5847C32.4425 56.6053 33.0212 56.4825 33.5452 56.227C33.9671 56.0074 34.3167 55.6706 34.5519 55.2572C34.7731 54.8516 34.8838 54.4091 34.8838 53.9149V52.9783H31.8489V50.8027H37.6604V53.7453C37.6604 54.457 37.5424 55.1355 37.3064 55.7734C37.0699 56.4054 36.7016 56.9799 36.226 57.4586C35.7082 57.9718 35.0855 58.3668 34.4007 58.6165C33.6706 58.8894 32.8151 59.0258 31.8268 59.0258C30.8797 59.045 29.9378 58.8797 29.0538 58.5391C28.3 58.2319 27.6264 57.7564 27.0847 57.1489C26.546 56.527 26.1451 55.7981 25.9084 55.0101C25.6405 54.1194 25.5099 53.193 25.5212 52.2629V50.3934C25.5212 49.0659 25.7646 47.8969 26.255 46.8939C26.7491 45.8946 27.4682 45.1166 28.4048 44.5597C29.3488 43.9992 30.4846 43.719 31.8194 43.719C32.6971 43.719 33.4788 43.8407 34.161 44.0877C34.8542 44.3311 35.4443 44.6704 35.931 45.1018C36.4251 45.5332 36.8086 46.0347 37.0889 46.6026Z" fill="#FE6916"/>
</g>
<defs>
<clipPath id="clip0_18_133">
<rect width="59" height="59" fill="white"/>
</clipPath>
</defs>
</svg>
