<svg width="25" height="25" viewBox="0 0 25 25" fill="none" xmlns="http://www.w3.org/2000/svg">
<g clip-path="url(#clip0_7_145)">
<path d="M22.1775 19.5778C21.4848 19.2849 21.1885 18.8963 21.2172 18.3165C21.2467 17.6396 20.8747 17.1439 20.6981 16.948C20.8048 16.5272 21.1166 15.0714 20.6984 13.8069C20.2489 12.4534 18.8766 10.3862 17.4606 8.35425C16.8809 7.51978 16.8535 6.61271 16.8218 5.56239C16.7915 4.56059 16.7572 3.42504 16.2161 2.16269C15.6276 0.788185 14.4469 0 12.9765 0C12.1018 0 11.2039 0.282209 10.5129 0.774195C9.09801 1.78223 9.28504 3.98002 9.40879 5.43431C9.42575 5.63346 9.44171 5.82157 9.451 5.98218C9.5334 7.4065 9.45843 8.15719 9.36039 8.38535C9.29696 8.53445 8.98471 8.9588 8.65425 9.4081C8.31249 9.87274 7.92504 10.3994 7.60744 10.8902C7.22851 11.4808 6.9226 12.3834 6.62677 13.2564C6.41031 13.8951 6.20586 14.4985 6.00683 14.859C5.62959 15.5527 5.72346 16.1994 5.80183 16.4983C5.65902 16.6007 5.45271 16.8024 5.27854 17.1824C5.06805 17.6461 4.64094 17.8953 3.75281 18.0716C3.34468 18.1578 3.06325 18.3349 2.9161 18.5981C2.70197 18.9811 2.8186 19.4624 2.92501 19.7913C3.08222 20.2748 2.98426 20.5808 2.80613 21.1365C2.76509 21.2647 2.71854 21.4099 2.67138 21.57C2.59711 21.8227 2.62391 22.0525 2.75084 22.2529C3.08625 22.7822 4.06499 22.9689 5.07254 23.0917C5.67412 23.1654 6.33255 23.4138 6.96938 23.6541C7.59335 23.8895 8.23853 24.1329 8.82502 24.2068C8.91416 24.2184 9.00244 24.2242 9.08755 24.2242C9.97305 24.2242 10.3731 23.6177 10.5 23.3685C10.818 23.3015 11.915 23.0869 13.0456 23.0581C14.1745 23.0249 15.2667 23.2549 15.5761 23.3265C15.6733 23.5187 15.9297 23.9577 16.3385 24.1838C16.5632 24.3106 16.8758 24.3833 17.196 24.3833C17.1961 24.3833 17.196 24.3833 17.1961 24.3833C17.5381 24.3833 18.1887 24.2998 18.7036 23.7406C19.2173 23.1788 20.5005 22.4615 21.4376 21.9378C21.6467 21.8209 21.8423 21.7115 22.0138 21.6128C22.5402 21.3115 22.8275 20.8811 22.8018 20.4319C22.7805 20.0588 22.5412 19.7315 22.1775 19.5778ZM10.5245 19.4696C10.4589 18.9931 9.86517 18.5206 9.17754 17.9734C8.6153 17.526 7.97801 17.0189 7.80245 16.5894C7.43962 15.7034 7.72562 14.1456 8.22428 13.3434C8.47071 12.9418 8.67199 12.3327 8.86668 11.7436C9.07687 11.1076 9.29425 10.45 9.53735 10.1621C9.92233 9.71261 10.2781 8.83809 10.3411 8.14887C10.7016 8.50415 11.2609 8.95497 11.7775 8.95497C11.857 8.95497 11.9342 8.94425 12.0081 8.92275C12.3615 8.81738 12.8814 8.50727 13.3842 8.20747C13.8176 7.94893 14.3521 7.6301 14.5533 7.60108C14.8981 8.11226 16.902 12.69 17.1067 14.1602C17.2688 15.3234 17.0976 16.285 17.0116 16.6616C16.9423 16.6518 16.8598 16.6439 16.773 16.6439C16.2149 16.6439 16.0671 16.9584 16.0286 17.1462C15.9297 17.6341 15.9192 19.1943 15.9181 19.5448C15.7163 19.8095 14.6957 21.056 13.2304 21.2801C12.6335 21.3697 12.0761 21.4151 11.5738 21.4151C11.1445 21.4151 10.8705 21.3809 10.7567 21.363L10.0204 20.4933C10.3107 20.3453 10.601 20.0331 10.5245 19.4696ZM11.4588 5.12844C11.4358 5.13867 11.4132 5.14963 11.391 5.1613C11.3887 5.10981 11.3835 5.05761 11.3756 5.00525C11.2952 4.52757 10.9883 4.18084 10.6461 4.18084C10.6208 4.18084 10.5953 4.18284 10.5674 4.18724C10.3638 4.22226 10.2041 4.38015 10.1166 4.604C10.1933 4.11281 10.4629 3.74914 10.7827 3.74914C11.1583 3.74914 11.4756 4.27166 11.4756 4.89012C11.4756 4.96807 11.4701 5.04562 11.4588 5.12844ZM14.3774 5.49675C14.4118 5.38371 14.4304 5.26139 14.4304 5.13444C14.4304 4.5737 14.0857 4.1344 13.6458 4.1344C13.2158 4.1344 12.866 4.58297 12.866 5.13444C12.866 5.17201 12.8678 5.20967 12.8712 5.24724C12.8484 5.23821 12.8262 5.22941 12.8045 5.22094C12.755 5.06624 12.73 4.90483 12.73 4.74006C12.73 4.06956 13.1451 3.52401 13.6554 3.52401C14.1657 3.52401 14.5809 4.06956 14.5809 4.74006C14.5809 5.019 14.5063 5.28521 14.3774 5.49675ZM14.0011 6.80179C13.9937 6.83568 13.9781 6.85071 13.8051 6.94361C13.7177 6.99054 13.609 7.04898 13.4729 7.13452L13.382 7.19136C13.0166 7.42001 12.1611 7.95556 11.9288 7.98698C11.7711 8.00889 11.6735 7.94573 11.4541 7.79183C11.4046 7.75706 11.3519 7.72012 11.2958 7.68295C10.9003 7.41505 10.6459 7.11997 10.6172 7.00461C10.7461 6.90172 11.0657 6.64421 11.2294 6.49176C11.5615 6.17293 11.8958 5.95868 12.0612 5.95868C12.0699 5.95868 12.0778 5.95932 12.086 5.96092C12.2804 5.99633 12.7599 6.19388 13.1101 6.3381C13.2719 6.40478 13.4117 6.46234 13.5101 6.49879C13.8199 6.60864 13.9815 6.74918 14.0011 6.80179ZM16.785 21.7013C16.9598 20.8874 17.1611 19.7801 17.1285 19.1273C17.121 18.979 17.1083 18.8176 17.096 18.6616C17.073 18.3698 17.0388 17.9361 17.0741 17.8074C17.081 17.8041 17.0888 17.8012 17.0974 17.7987C17.0988 18.1719 17.1774 18.9163 17.754 19.1759C17.9259 19.2533 18.1223 19.2924 18.3377 19.2924C18.9154 19.2924 19.5563 18.9999 19.8188 18.7289C19.9734 18.5693 20.1034 18.3741 20.1945 18.2195C20.2144 18.2797 20.2267 18.3583 20.2202 18.4597C20.1859 19.0101 20.4451 19.7404 20.9382 20.0095L21.01 20.0484C21.1857 20.1435 21.6522 20.3964 21.6597 20.5163C21.6596 20.5164 21.6557 20.5305 21.6297 20.5554C21.5129 20.6657 21.1015 20.8825 20.7038 21.0922C19.9982 21.4641 19.1984 21.8856 18.8392 22.2756C18.3335 22.825 17.7615 23.194 17.4161 23.194C17.3745 23.194 17.3367 23.1886 17.303 23.1776C16.9278 23.0568 16.6191 22.4981 16.785 21.7013ZM3.99808 19.6248C3.95982 19.44 3.92962 19.2941 3.96207 19.1528C3.98561 19.048 4.48644 18.9358 4.70034 18.8879C5.00106 18.8205 5.31207 18.7509 5.51544 18.6234C5.79045 18.4515 5.93937 18.1343 6.07072 17.8545C6.16582 17.6522 6.26402 17.443 6.38088 17.3743C6.38746 17.3703 6.39753 17.3657 6.41674 17.3657C6.63567 17.3657 7.09507 17.8408 7.35977 18.266C7.42692 18.3732 7.55129 18.588 7.69519 18.8367C8.12554 19.5801 8.71482 20.5982 9.02258 20.9394C9.29991 21.2461 9.74885 21.8359 9.63842 22.3417C9.55756 22.7342 9.12713 23.0533 9.0256 23.1239C8.98874 23.1325 8.94312 23.1369 8.88945 23.1369C8.30041 23.1369 7.13441 22.631 6.50797 22.3592L6.41527 22.319C6.06545 22.1676 5.49438 22.0722 4.94212 21.98C4.5027 21.9065 3.90096 21.806 3.80121 21.7152C3.72036 21.6216 3.81415 21.3172 3.89686 21.0487C3.95641 20.8557 4.0179 20.6561 4.05159 20.4473C4.09937 20.114 4.04315 19.8428 3.99808 19.6248Z" fill="white"/>
</g>
<defs>
<clipPath id="clip0_7_145">
<rect width="23.6203" height="24.3833" fill="white" transform="translate(0.906738)"/>
</clipPath>
</defs>
</svg>
