<svg width="25" height="26" viewBox="0 0 25 26" fill="none" xmlns="http://www.w3.org/2000/svg">
<g clip-path="url(#clip0_26_60)">
<path d="M22.3574 20.7639C21.6332 20.4577 21.3234 20.0514 21.3534 19.4451C21.3842 18.7375 20.9953 18.2191 20.8106 18.0143C20.9222 17.5743 21.2483 16.0522 20.811 14.7301C20.341 13.3149 18.9062 11.1536 17.4257 9.02905C16.8196 8.15656 16.7909 7.20817 16.7578 6.10999C16.7261 5.06255 16.6903 3.87527 16.1244 2.55541C15.5092 1.11828 14.2747 0.294189 12.7373 0.294189C11.8227 0.294189 10.8839 0.589255 10.1615 1.10366C8.68209 2.15762 8.87764 4.45553 9.00704 5.97608C9.02477 6.1843 9.04145 6.38098 9.05117 6.54891C9.13732 8.03811 9.05894 8.82301 8.95643 9.06157C8.89011 9.21746 8.56363 9.66114 8.21812 10.1309C7.86079 10.6167 7.45568 11.1674 7.12362 11.6805C6.72742 12.298 6.40758 13.2418 6.09826 14.1545C5.87194 14.8224 5.65818 15.4532 5.45008 15.8302C5.05566 16.5554 5.1538 17.2316 5.23574 17.5442C5.08643 17.6512 4.87072 17.862 4.68861 18.2594C4.46853 18.7442 4.02197 19.0048 3.09338 19.1891C2.66665 19.2792 2.3724 19.4644 2.21855 19.7396C1.99466 20.1401 2.11661 20.6433 2.22786 20.9871C2.39224 21.4927 2.28981 21.8127 2.10357 22.3936C2.06065 22.5277 2.01199 22.6795 1.96268 22.8469C1.88502 23.1111 1.91304 23.3513 2.04575 23.5609C2.39645 24.1143 3.41978 24.3095 4.47323 24.4379C5.10222 24.515 5.79065 24.7747 6.45648 25.026C7.10888 25.272 7.78346 25.5266 8.39667 25.6038C8.48986 25.6159 8.58217 25.622 8.67116 25.622C9.597 25.622 10.0153 24.9878 10.1479 24.7273C10.4805 24.6572 11.6275 24.4329 12.8096 24.4028C13.9898 24.368 15.1318 24.6086 15.4553 24.6834C15.557 24.8844 15.8251 25.3433 16.2524 25.5798C16.4873 25.7124 16.8142 25.7884 17.1491 25.7884C17.1491 25.7884 17.1491 25.7884 17.1491 25.7884C17.5067 25.7884 18.187 25.7011 18.7253 25.1164C19.2624 24.5289 20.6041 23.779 21.5838 23.2314C21.8025 23.1092 22.007 22.9948 22.1864 22.8916C22.7367 22.5767 23.037 22.1266 23.0102 21.6569C22.9879 21.2668 22.7378 20.9246 22.3574 20.7639ZM10.1735 20.6508C10.105 20.1526 9.48421 19.6585 8.76525 19.0864C8.17739 18.6186 7.51107 18.0884 7.32751 17.6394C6.94815 16.713 7.24718 15.0842 7.76856 14.2455C8.02622 13.8256 8.23666 13.1887 8.44023 12.5728C8.65999 11.9078 8.88728 11.2202 9.14145 10.9192C9.54396 10.4493 9.91595 9.53492 9.98186 8.81431C10.3588 9.18578 10.9435 9.65713 11.4837 9.65713C11.5668 9.65713 11.6475 9.64593 11.7247 9.62344C12.0943 9.51328 12.6378 9.18904 13.1635 8.87558C13.6167 8.60526 14.1756 8.27191 14.3859 8.24157C14.7464 8.77603 16.8416 13.5624 17.0557 15.0995C17.2251 16.3157 17.0461 17.3211 16.9562 17.7148C16.8838 17.7046 16.7975 17.6964 16.7068 17.6964C16.1232 17.6964 15.9687 18.0252 15.9285 18.2216C15.825 18.7317 15.8141 20.3629 15.8129 20.7294C15.6019 21.0062 14.5348 22.3095 13.0027 22.5438C12.3786 22.6374 11.7959 22.6849 11.2707 22.6849C10.8218 22.6849 10.5353 22.6491 10.4164 22.6305L9.64647 21.7211C9.95004 21.5664 10.2535 21.2399 10.1735 20.6508ZM11.1505 5.65628C11.1264 5.66697 11.1028 5.67843 11.0795 5.69063C11.0772 5.6368 11.0718 5.58222 11.0634 5.52747C10.9794 5.02803 10.6585 4.66551 10.3007 4.66551C10.2743 4.66551 10.2476 4.6676 10.2184 4.67219C10.0055 4.70881 9.83854 4.87389 9.74704 5.10794C9.82729 4.59437 10.1092 4.21413 10.4436 4.21413C10.8363 4.21413 11.168 4.76046 11.168 5.4071C11.168 5.4886 11.1623 5.56968 11.1505 5.65628ZM14.202 6.04136C14.2379 5.92317 14.2574 5.79528 14.2574 5.66254C14.2574 5.07626 13.897 4.61694 13.437 4.61694C12.9875 4.61694 12.6217 5.08595 12.6217 5.66254C12.6217 5.70183 12.6236 5.7412 12.6272 5.78049C12.6033 5.77104 12.5801 5.76185 12.5574 5.75299C12.5057 5.59124 12.4795 5.42248 12.4795 5.2502C12.4795 4.54915 12.9136 3.97875 13.4472 3.97875C13.9807 3.97875 14.4148 4.54915 14.4148 5.2502C14.4148 5.54184 14.3368 5.82019 14.202 6.04136ZM13.8085 7.40586C13.8008 7.4413 13.7845 7.45701 13.6036 7.55414C13.5123 7.60321 13.3986 7.66431 13.2563 7.75375L13.1612 7.81318C12.7792 8.05224 11.8847 8.6122 11.6419 8.64505C11.4769 8.66795 11.3749 8.60192 11.1455 8.44101C11.0938 8.40465 11.0387 8.36603 10.98 8.32716C10.5665 8.04706 10.3005 7.73853 10.2704 7.61792C10.4053 7.51034 10.7394 7.2411 10.9105 7.0817C11.2578 6.74835 11.6073 6.52434 11.7803 6.52434C11.7894 6.52434 11.7977 6.525 11.8063 6.52668C12.0095 6.56371 12.5108 6.77025 12.877 6.92104C13.0462 6.99076 13.1923 7.05094 13.2952 7.08906C13.6191 7.20391 13.7881 7.35085 13.8085 7.40586ZM16.7193 22.9841C16.902 22.1331 17.1125 20.9754 17.0784 20.2929C17.0706 20.1379 17.0573 19.9691 17.0444 19.806C17.0204 19.5009 16.9847 19.0474 17.0215 18.9129C17.0288 18.9094 17.0369 18.9064 17.0459 18.9038C17.0474 19.294 17.1295 20.0723 17.7325 20.3437C17.9121 20.4246 18.1175 20.4656 18.3428 20.4656C18.9467 20.4656 19.6169 20.1597 19.8914 19.8763C20.053 19.7095 20.1889 19.5054 20.2841 19.3437C20.305 19.4067 20.3178 19.4889 20.311 19.5949C20.2752 20.1704 20.5461 20.9339 21.0617 21.2153L21.1368 21.256C21.3204 21.3554 21.8082 21.6198 21.8161 21.7452C21.816 21.7453 21.8119 21.76 21.7847 21.7861C21.6625 21.9013 21.2325 22.128 20.8166 22.3473C20.0789 22.7361 19.2427 23.1769 18.8671 23.5846C18.3384 24.1591 17.7403 24.5449 17.3792 24.5449C17.3357 24.5449 17.2961 24.5392 17.2609 24.5277C16.8686 24.4015 16.5458 23.8173 16.7193 22.9841ZM3.34982 20.8131C3.30982 20.6199 3.27824 20.4673 3.31216 20.3195C3.33678 20.21 3.86043 20.0927 4.08407 20.0426C4.39849 19.9721 4.72367 19.8993 4.93631 19.7661C5.22384 19.5863 5.37955 19.2547 5.51688 18.9621C5.61631 18.7506 5.71899 18.5318 5.84118 18.46C5.84806 18.4559 5.85858 18.451 5.87867 18.451C6.10757 18.451 6.5879 18.9478 6.86467 19.3924C6.93487 19.5045 7.06491 19.7291 7.21536 19.9891C7.66532 20.7663 8.28144 21.8308 8.60323 22.1876C8.89319 22.5083 9.36259 23.1249 9.24712 23.6538C9.16258 24.0641 8.71254 24.3978 8.60638 24.4716C8.56784 24.4806 8.52015 24.4852 8.46403 24.4852C7.84816 24.4852 6.62904 23.9563 5.97405 23.6721L5.87713 23.63C5.51137 23.4717 4.91428 23.372 4.33687 23.2755C3.87743 23.1987 3.24828 23.0936 3.14398 22.9987C3.05945 22.9008 3.15751 22.5826 3.24398 22.3018C3.30625 22.1 3.37054 21.8914 3.40577 21.673C3.45573 21.3246 3.39694 21.041 3.34982 20.8131Z" fill="#FE6916"/>
</g>
<defs>
<clipPath id="clip0_26_60">
<rect width="24.6964" height="25.4942" fill="white" transform="translate(0.117645 0.294189)"/>
</clipPath>
</defs>
</svg>
