<svg width="218" height="66" viewBox="0 0 218 66" fill="none" xmlns="http://www.w3.org/2000/svg">
<path d="M62.0881 29.1608L62.1138 29.1876L62.1398 29.211L62.1403 29.2114L62.1403 29.2115L62.1408 29.2119L62.1414 29.2125L62.1474 29.218C62.1549 29.2249 62.1676 29.2368 62.1849 29.2534C62.2197 29.2868 62.273 29.339 62.3402 29.4084C62.475 29.5476 62.6637 29.7538 62.8707 30.0133C63.2909 30.5403 63.7548 31.2483 64.0184 32.0335C64.278 32.8067 64.3312 33.6123 64.0055 34.4115C63.6775 35.2165 62.9071 36.1567 61.2428 37.08C57.7423 39.022 54.2378 40.1607 51.3064 41.0961C51.2341 41.1191 51.162 41.1421 51.0902 41.165C49.7232 41.601 48.4581 42.0044 47.4153 42.4285C46.3413 42.8653 45.3471 43.3823 44.7064 44.1066C44.3256 44.5371 44.0863 45.0881 44.1956 45.7113C44.294 46.2727 44.6452 46.6931 44.9595 46.9831C45.5495 47.5275 46.47 48.0149 47.2676 48.4373C47.3038 48.4565 47.3397 48.4755 47.3753 48.4944C48.2747 48.9712 49.0755 49.4037 49.6184 49.8654C50.1689 50.3336 50.1679 50.5767 50.1309 50.7165C49.7375 52.2011 48.7392 52.8928 47.2914 53.4029C46.7032 53.6101 46.0881 53.7709 45.4285 53.9434C45.2477 53.9906 45.0636 54.0387 44.8758 54.0889C44.0344 54.3139 43.1329 54.5775 42.3154 54.9833C41.1351 55.5692 40.1961 56.1308 39.4877 56.6683C38.7942 57.1945 38.2485 57.752 37.9537 58.353C37.6317 59.0096 37.6087 59.7405 38.0245 60.3846C38.3891 60.9493 39 61.2987 39.6078 61.5259C39.9106 61.639 40.1305 61.7385 40.2843 61.8218C40.2036 61.8914 40.0924 61.9784 39.9404 62.0823C39.471 62.4032 38.7475 62.7967 37.6959 63.2778C35.4823 64.2903 33.4132 64.91 31.871 64.991C31.0998 65.0315 30.5463 64.9322 30.1852 64.7575C29.8643 64.6021 29.6679 64.3784 29.5714 64.0178C28.7797 61.0593 26.5729 58.9508 23.4821 58.9508C22.4117 58.9508 21.6838 58.5453 21.4088 58.1526C21.2865 57.9778 21.2394 57.7946 21.2723 57.581C21.3078 57.3508 21.4506 57.0045 21.8619 56.5686C21.8878 56.5412 21.9137 56.5137 21.9397 56.4862C22.4105 55.9875 22.8952 55.4742 23.2691 54.9784C23.6539 54.4682 24.0341 53.8353 24.087 53.1135C24.1462 52.307 23.7885 51.6118 23.16 51.0467C22.5659 50.5125 21.6864 50.0483 20.5318 49.6076C19.3251 49.147 17.8959 48.8454 16.4973 48.5845C16.1266 48.5153 15.7586 48.4491 15.3946 48.3836C14.3514 48.1959 13.3414 48.0141 12.3976 47.7868C11.1178 47.4787 10.1022 47.1169 9.42096 46.6414C8.78992 46.201 8.49373 45.7052 8.49373 45.0196C8.49373 44.5414 8.69325 44.1862 9.12085 43.846C9.58764 43.4747 10.2662 43.176 11.0881 42.8866C11.3459 42.7959 11.6308 42.7023 11.9228 42.6064C12.4745 42.4253 13.0514 42.2358 13.5177 42.0416C13.8937 41.885 14.2795 41.695 14.6088 41.4502C14.9392 41.2046 15.2725 40.8591 15.4404 40.3761C15.5888 39.949 15.5114 39.5294 15.3092 39.1966C15.1322 38.9052 14.8763 38.7027 14.661 38.5635C14.2274 38.2833 13.6337 38.0578 13.017 37.8634C11.9911 37.5401 10.6396 37.2263 9.24709 36.903C8.93885 36.8314 8.6286 36.7594 8.31942 36.6867C6.57677 36.2768 4.84038 35.84 3.47231 35.3224C2.78832 35.0636 2.23788 34.7997 1.83976 34.5335C1.42795 34.2582 1.27802 34.0463 1.23387 33.9316C0.777951 32.748 0.997245 31.5389 1.83114 30.1205C2.682 28.6732 4.09092 27.1522 5.78486 25.4442C7.48289 23.7321 12.7776 18.143 17.634 12.9969C20.0653 10.4206 22.3911 7.95071 24.109 6.12491C24.9679 5.21199 25.675 4.46008 26.1673 3.93639L26.7368 3.3304L26.8861 3.17152L26.9243 3.13087L26.9309 3.12381C27.9423 2.08775 29.6563 1.18428 31.5669 1.02488C33.4412 0.868515 35.5105 1.42543 37.3261 3.32053C39.3631 5.44667 45.5537 11.9068 51.2349 17.8353L58.7919 25.7212L61.1912 28.2249L61.8548 28.9173L62.0286 29.0987L62.0731 29.1451L62.0843 29.1568L62.0871 29.1598L62.0878 29.1605C62.088 29.1607 62.0881 29.1608 62.8101 28.4689L62.0881 29.1608ZM40.5373 61.9932C40.5371 61.993 40.5367 61.9925 40.5359 61.9916C40.537 61.9928 40.5374 61.9933 40.5373 61.9932Z" stroke="white" stroke-width="2"/>
<path d="M55 49.6988C55 49.6988 63.2793 52.2791 64.23 49.1754C65.3121 45.6428 56.655 44.727 55 49.6988Z" stroke="white" stroke-width="2"/>
<path d="M53.1538 53.3119C53.1538 53.3119 57.2721 55.0015 56.3809 56.7024C55.4897 58.4033 49.7787 57.2601 53.1538 53.3119Z" stroke="white" stroke-width="2"/>
<path d="M18.1611 54.3473C18.1611 54.3473 15.2355 59.9853 11.8593 57.6182C8.97503 55.596 12.7823 52.9408 14.9466 53.0717C17.1108 53.2025 18.1611 54.3473 18.1611 54.3473Z" stroke="white" stroke-width="2"/>
<path d="M27.7357 9.10847C29.3501 7.39847 32.7881 6.01109 35.2993 8.72129C37.8106 11.4315 43.4907 17.6586 44.0886 18.2393C44.6865 18.8201 45.4339 20.8205 44.6865 21.6916C43.5 21.0678 39 19.0124 39 19.0124V24.1509L34.5 21.6916L30 25.6924L27.8254 16.9487L24.5967 23.079C24.5967 23.079 20.6804 23.0467 19.4846 23.0467C18.2887 23.0467 17.1228 20.9172 18.9464 18.7878C20.7701 16.6584 27.7357 9.10847 27.7357 9.10847Z" stroke="white" stroke-width="2" stroke-linejoin="round"/>
<path d="M32.5199 44.7691L32.5199 44.7691C32.4455 44.8042 32.256 44.8408 31.9024 44.8239C31.5677 44.8078 31.1494 44.7477 30.6675 44.6506C29.7054 44.4566 28.5419 44.1256 27.3873 43.7558C25.0726 43.0145 22.8607 42.1392 22.476 41.9567C22.2601 41.8543 21.9879 41.7046 21.7293 41.5415C21.9053 41.582 22.0992 41.6267 22.3083 41.6748C23.3107 41.9054 24.6629 42.2152 26.062 42.5322C28.8459 43.163 31.8548 43.8314 32.6255 43.9494C32.9647 44.0013 33.175 44.0806 33.2873 44.1507C33.3112 44.1656 33.3277 44.178 33.339 44.1876C33.3248 44.2133 33.2949 44.2564 33.2333 44.3166C33.1019 44.4452 32.8732 44.6027 32.5199 44.7691ZM33.3614 44.2115C33.3611 44.2116 33.3598 44.2099 33.3582 44.2066C33.3608 44.2098 33.3616 44.2115 33.3614 44.2115Z" fill="white" stroke="white"/>
<path d="M74.8386 41.7309H79.8615V19.4256H74.8386V41.7309Z" fill="white"/>
<path d="M94.8064 24.3328C92.543 24.3328 90.5896 25.1295 89.2873 26.5952V24.5877H84.6674V41.731H89.5044V33.255C89.5044 30.1003 91.1787 28.6346 93.5041 28.6346C95.6436 28.6346 96.8838 29.9092 96.8838 32.6814V41.731H101.721V31.9167C101.721 26.6908 98.7442 24.3328 94.8064 24.3328Z" fill="white"/>
<path d="M118.526 41.731H124.386L116.821 31.8529L123.766 24.5877H117.999L110.93 31.4705V18.0873H106.093V41.731H110.93V37.3655L113.255 35.0075L118.526 41.731Z" fill="white"/>
<path d="M131.611 41.9859C136.603 41.9859 139.486 39.7235 139.486 36.537C139.486 29.7817 129.409 32.6177 129.409 29.6861C129.409 28.7939 130.339 28.0929 132.51 28.0929C134.029 28.0929 135.672 28.4115 137.316 29.3675L138.928 25.8305C137.347 24.8745 134.804 24.3328 132.51 24.3328C127.642 24.3328 124.789 26.6271 124.789 29.8773C124.789 36.7282 134.866 33.8604 134.866 36.6645C134.866 37.6204 134.029 38.2259 131.797 38.2259C129.75 38.2259 127.487 37.5567 125.998 36.5689L124.386 40.1378C125.936 41.1893 128.789 41.9859 131.611 41.9859Z" fill="white"/>
<path d="M150.524 41.9859C154.028 41.9859 156.787 40.3927 157.997 37.6523L154.245 35.5492C153.346 37.2062 152.013 37.9072 150.493 37.9072C148.044 37.9072 146.121 36.1547 146.121 33.1594C146.121 30.1641 148.044 28.4115 150.493 28.4115C152.013 28.4115 153.346 29.1444 154.245 30.7695L157.997 28.6983C156.787 25.8942 154.028 24.3328 150.524 24.3328C145.098 24.3328 141.222 27.9973 141.222 33.1594C141.222 38.3215 145.098 41.9859 150.524 41.9859Z" fill="white"/>
<path d="M167.516 24.3328C164.849 24.3328 162.152 25.0658 160.322 26.4041L162.058 29.8773C163.268 28.8895 165.097 28.2841 166.864 28.2841C169.469 28.2841 170.709 29.5268 170.709 31.6617H166.864C161.779 31.6617 159.702 33.7648 159.702 36.7919C159.702 39.7554 162.027 41.9859 165.934 41.9859C168.384 41.9859 170.12 41.1574 171.019 39.5961V41.731H175.546V31.9485C175.546 26.7546 172.601 24.3328 167.516 24.3328ZM167.143 38.6401C165.438 38.6401 164.415 37.8116 164.415 36.5689C164.415 35.4218 165.128 34.5614 167.392 34.5614H170.709V36.314C170.151 37.8754 168.756 38.6401 167.143 38.6401Z" fill="white"/>
<path d="M189.778 24.3328C187.545 24.3328 185.747 25.0658 184.538 26.5634V24.5877H179.918V47.9127H184.755V39.9147C185.995 41.3167 187.7 41.9859 189.778 41.9859C194.46 41.9859 198.087 38.5445 198.087 33.1594C198.087 27.7742 194.46 24.3328 189.778 24.3328ZM188.941 37.9072C186.522 37.9072 184.693 36.1228 184.693 33.1594C184.693 30.1959 186.522 28.4115 188.941 28.4115C191.359 28.4115 193.189 30.1959 193.189 33.1594C193.189 36.1228 191.359 37.9072 188.941 37.9072Z" fill="white"/>
<path d="M217.652 33.2231C217.652 27.7105 213.87 24.3328 208.971 24.3328C203.886 24.3328 200.072 28.0291 200.072 33.1594C200.072 38.2577 203.824 41.9859 209.591 41.9859C212.598 41.9859 214.924 41.03 216.474 39.2137L213.901 36.3459C212.753 37.4611 211.482 38.0028 209.715 38.0028C207.172 38.0028 205.405 36.6964 204.94 34.5614H217.559C217.59 34.1472 217.652 33.6055 217.652 33.2231ZM209.002 28.0929C211.172 28.0929 212.753 29.4949 213.094 31.6617H204.878C205.219 29.4631 206.8 28.0929 209.002 28.0929Z" fill="white"/>
</svg>
