<?xml version="1.0" encoding="UTF-8" standalone="no"?>
<!-- Created with Inkscape (http://www.inkscape.org/) -->

<svg
   width="649.3006mm"
   height="191.58534mm"
   viewBox="0 0 649.3006 191.58534"
   version="1.1"
   id="svg5"
   xml:space="preserve"
   inkscape:version="1.2.1 (9c6d41e410, 2022-07-14)"
   sodipodi:docname="Logo.svg"
   xmlns:inkscape="http://www.inkscape.org/namespaces/inkscape"
   xmlns:sodipodi="http://sodipodi.sourceforge.net/DTD/sodipodi-0.dtd"
   xmlns="http://www.w3.org/2000/svg"
   xmlns:svg="http://www.w3.org/2000/svg"><sodipodi:namedview
     id="namedview7"
     pagecolor="#ffffff"
     bordercolor="#000000"
     borderopacity="0.25"
     inkscape:showpageshadow="2"
     inkscape:pageopacity="0.0"
     inkscape:pagecheckerboard="0"
     inkscape:deskcolor="#d1d1d1"
     inkscape:document-units="mm"
     showgrid="false"
     inkscape:zoom="0.34832638"
     inkscape:cx="1535.9158"
     inkscape:cy="321.53752"
     inkscape:window-width="1920"
     inkscape:window-height="1017"
     inkscape:window-x="-8"
     inkscape:window-y="-8"
     inkscape:window-maximized="1"
     inkscape:current-layer="layer1" /><defs
     id="defs2"><style
       id="style9">.cls-1{fill:none;}.cls-2{isolation:isolate;}.cls-3{clip-path:url(#clip-path);}.cls-4{fill:#ce6387;}.cls-5{fill:#ce91b8;}.cls-6{fill:#cce2ea;}.cls-7{fill:#bedee9;}.cls-8{fill:#76c8e4;}.cls-9{fill:#84cde5;}.cls-10{fill:#3291ec;}.cls-11{fill:#90d1e6;}.cls-12{fill:#554c64;}.cls-13{fill:#d9d8d5;}.cls-14{fill:#b1aea7;}.cls-15{fill:#fff;}.cls-16{fill:#d793b6;}.cls-17{fill:#9ed4e7;}.cls-18{fill:#a57ea1;}.cls-19{fill:#bb8eb6;}.cls-20{fill:#efa49f;}.cls-21{fill:#fced39;}.cls-22{fill:#a559b8;}.cls-23{fill:#e25654;}.cls-24{fill:#c06db7;}.cls-25{fill:#94d1da;}.cls-26{fill:#f7b892;}.cls-27{fill:#e3b96f;}.cls-28{fill:#faf4f4;}.cls-29{fill:#dfe4e8;}.cls-30{fill:#ebd1ce;}.cls-31{fill:#c0d7c2;}.cls-32{opacity:0.14;mix-blend-mode:multiply;}.cls-33{fill:#3845e1;}.cls-34{fill:#332663;}.cls-35{fill:#2879a5;}.cls-36{fill:#d48b43;}.cls-37{fill:#6ca3c1;}.cls-38{fill:#71f9e2;}.cls-39{fill:#e25755;}.cls-40{fill:#f8b2ff;}.cls-41{fill:#ee97f7;}.cls-42{fill:#acf9fc;}.cls-43{fill:#eff56a;}.cls-44{fill:#376fe5;}.cls-45{fill:#c22953;}.cls-46{fill:#a75bb9;}.cls-47{fill:#e2b60a;}.cls-48{fill:#e4ba71;}.cls-49{fill:#e3e7d8;}.cls-50{fill:#211744;}.cls-51{opacity:0.54;mix-blend-mode:overlay;}</style><clipPath
       id="clip-path"
       transform="translate(0 -2.65)"><path
         class="cls-1"
         d="M 2141.16,601.4 V 0 H 15.28 v 1417.32 h 2125.88 z"
         id="path11" /></clipPath></defs><g
     inkscape:label="Camada 1"
     inkscape:groupmode="layer"
     id="layer1"
     transform="translate(346.12821,1597.9322)"><g
       id="g28325"
       transform="matrix(0.91589533,0,0,0.91589533,-1.8063936,-126.33694)"><g
         id="g26680"
         transform="translate(-335.73637,-47.853827)"><path
           style="fill:#000000;stroke-width:0.264583"
           d="m 67.79292,-1543.0174 c 7.02616,-7.0262 23.16733,-11.7735 35.32068,0.5697 12.15336,12.3433 73.8696,75.009 73.8696,75.009 0,0 18.23003,15.9512 -3.22824,27.5349 -21.45826,11.5837 -42.84741,13.5152 -48.54429,19.7818 -5.69689,6.2666 19.08631,9.7279 16.83164,18.0075 -3.07092,11.277 -16.2734,10.0885 -24.87244,14.2422 -13.68043,6.6083 -14.62596,11.3938 -8.35939,13.6726 6.26658,2.2787 7.28521,4.7504 -5.50698,10.4443 -13.50567,6.0115 -26.27083,7.8548 -28.35969,0.259 -2.08885,-7.5959 -7.688,-12.5562 -15.28384,-12.5562 -7.59585,0 -13.0798,-5.5435 -7.00312,-11.8101 6.07668,-6.2665 10.43079,-10.565 -2.86194,-15.5023 -13.29273,-4.9373 -37.38562,-9.5353 -37.83145,-16.03 -0.44138,-6.4299 18.98961,-9.115 20.88857,-14.4321 1.89897,-5.3171 -38.7388098,-7.5959 -42.3468298,-16.7109 -3.6080302,-9.115 4.17771,-17.8502 14.24221,-27.7248 10.0644898,-9.8746 63.0455098,-64.7546 63.0455098,-64.7546 z"
           id="path26600"
           sodipodi:nodetypes="cscssssssssssssssc" /><path
           style="fill:#000000;stroke-width:0.264583"
           d="m 150.77753,-1402.0031 c 0,0 24.69868,7.4902 27.53494,-1.5192 3.22823,-10.2545 -22.59764,-12.913 -27.53494,1.5192 z"
           id="path26602"
           sodipodi:nodetypes="csc" /><path
           style="fill:#000000;stroke-width:0.264583"
           d="m 148.17659,-1395.3242 c 0,0 12.28564,4.9047 9.6271,9.842 -2.65855,4.9373 -19.69556,1.6189 -9.6271,-9.842 z"
           id="path26604"
           sodipodi:nodetypes="csc" /><path
           style="fill:#000000;stroke-width:0.264583"
           d="m 49.752786,-1392.3185 c 0,0 -8.727726,16.3661 -18.799717,9.4948 -8.60431,-5.87 2.753496,-13.5775 9.209964,-13.1977 6.456469,0.3798 9.589753,3.7029 9.589753,3.7029 z"
           id="path26606"
           sodipodi:nodetypes="cssc" /><path
           style="fill:#ffffff;stroke-width:0.264583"
           d="m 74.184227,-1537.8115 c 5.127197,-5.0322 16.046223,-9.115 24.021862,-1.1394 7.975641,7.9757 26.015761,26.3006 27.914731,28.0097 1.89896,1.7091 4.27266,7.5959 1.89896,10.1595 -3.22824,-2.2788 -14.622,-11.3938 -14.622,-11.3938 l -2.08885,17.4704 -12.058414,-6.1716 -18.799717,11.8685 -5.981727,-25.7309 -10.254392,18.0401 c 0,0 -12.438197,-0.095 -16.236119,-0.095 -3.797925,0 -7.500898,-6.2666 -1.709066,-12.5332 5.791833,-6.2665 27.914732,-28.4844 27.914732,-28.4844 z"
           id="path26608" /><path
           style="fill:#ffffff;stroke-width:0.264583"
           d="m 51.5568,-1431.627 c 0,0 31.142966,7.0262 35.605527,7.6908 4.462557,0.6647 4.652454,3.0384 0.09495,5.1272 -4.557509,2.0889 -28.769265,-7.0261 -31.237914,-8.1655 -2.46865,-1.1394 -7.311001,-4.1777 -4.462561,-4.6525 z"
           id="path26610" /></g><g
         aria-label="Inkscape"
         id="text26736"
         style="font-weight:bold;font-size:92.4972px;font-family:Montserrat;-inkscape-font-specification:'Montserrat Bold';stroke-width:145.665"><path
           d="m -122.86976,-1476.7953 h 14.98455 v -64.748 h -14.98455 z"
           id="path28292" /><path
           d="m -63.301646,-1527.2988 c -6.752296,0 -12.579619,2.3125 -16.464502,6.5673 v -5.8273 H -93.54823 v 49.7635 h 14.429563 v -24.6042 c 0,-9.1573 4.994849,-13.4121 11.932139,-13.4121 6.382306,0 10.082194,3.6999 10.082194,11.7471 v 26.2692 h 14.429564 v -28.4891 c 0,-15.1696 -8.879732,-22.0144 -20.626876,-22.0144 z"
           id="path28294" /><path
           d="M 7.4587104,-1476.7953 H 24.940681 l -22.5693166,-28.6741 20.7193726,-21.0894 H 5.886258 l -21.089362,19.9794 v -38.8488 h -14.429563 v 68.6329 h 14.429563 v -12.6721 l 6.9372904,-6.8448 z"
           id="path28296" /><path
           d="m 46.492551,-1476.0553 c 14.892049,0 23.494289,-6.5673 23.494289,-15.817 0,-19.6094 -30.06159,-11.3772 -30.06159,-19.8869 0,-2.59 2.774916,-4.6249 9.24972,-4.6249 4.532362,0 9.434714,0.925 14.337066,3.6999 l 4.809854,-10.2672 c -4.717357,-2.7749 -12.302128,-4.3474 -19.14692,-4.3474 -14.522061,0 -23.031803,6.6598 -23.031803,16.0946 0,19.8869 30.06159,11.5621 30.06159,19.7019 0,2.7749 -2.497425,4.5323 -9.157223,4.5323 -6.104815,0 -12.857111,-1.9424 -17.296976,-4.8098 l -4.809855,10.3597 c 4.62486,3.0524 13.134603,5.3648 21.551848,5.3648 z"
           id="path28298" /><path
           d="m 102.91586,-1476.0553 c 10.45218,0 18.68443,-4.6249 22.29182,-12.5796 l -11.19216,-6.1048 c -2.68242,4.8098 -6.6598,6.8447 -11.19216,6.8447 -7.307278,0 -13.042105,-5.0873 -13.042105,-13.782 0,-8.6948 5.734827,-13.7821 13.042105,-13.7821 4.53236,0 8.50974,2.1274 11.19216,6.8448 l 11.19216,-6.0123 c -3.60739,-8.1398 -11.83964,-12.6722 -22.29182,-12.6722 -16.187012,0 -27.749162,10.6372 -27.749162,25.6218 0,14.9845 11.56215,25.6217 27.749162,25.6217 z"
           id="path28300" /><path
           d="m 153.60428,-1527.2988 c -7.95476,0 -16.00202,2.1275 -21.45935,6.0124 l 5.17984,10.0822 c 3.60739,-2.8675 9.06473,-4.6249 14.33707,-4.6249 7.76976,0 11.46965,3.6074 11.46965,9.8047 h -11.46965 c -15.16954,0 -21.36685,6.1048 -21.36685,14.892 0,8.6023 6.93729,15.0771 18.59193,15.0771 7.30728,0 12.48712,-2.4049 15.16954,-6.9373 v 6.1973 h 13.50459 v -28.3966 c 0,-15.0771 -8.78723,-22.1069 -23.95677,-22.1069 z m -1.10997,41.5313 c -5.08734,0 -8.13975,-2.4049 -8.13975,-6.0123 0,-3.3299 2.12744,-5.8274 8.87973,-5.8274 h 9.8972 v 5.0874 c -1.66495,4.5324 -5.82732,6.7523 -10.63718,6.7523 z"
           id="path28302" /><path
           d="m 220.01733,-1527.2988 c -6.6598,0 -12.02464,2.1275 -15.63203,6.4748 v -5.7348 h -13.78208 v 67.708 h 14.42956 v -23.2168 c 3.69989,4.0698 8.78724,6.0123 14.98455,6.0123 13.96708,0 24.78925,-9.9897 24.78925,-25.6217 0,-15.6321 -10.82217,-25.6218 -24.78925,-25.6218 z m -2.49743,39.4038 c -7.21478,0 -12.67211,-5.1798 -12.67211,-13.782 0,-8.6023 5.45733,-13.7821 12.67211,-13.7821 7.21479,0 12.67212,5.1798 12.67212,13.7821 0,8.6022 -5.45733,13.782 -12.67212,13.782 z"
           id="path28304" /><path
           d="m 303.17236,-1501.492 c 0,-16.0021 -11.28466,-25.8068 -25.89921,-25.8068 -15.16954,0 -26.5467,10.7297 -26.5467,25.6218 0,14.7995 11.19216,25.6217 28.39664,25.6217 8.97223,0 15.90952,-2.7749 20.53438,-8.0473 l -7.67727,-8.3247 c -3.42239,3.2374 -7.21478,4.8098 -12.48712,4.8098 -7.58477,0 -12.85711,-3.7923 -14.24457,-9.9897 h 37.64636 c 0.0925,-1.2024 0.27749,-2.7749 0.27749,-3.8848 z m -25.80672,-14.8921 c 6.47481,0 11.19217,4.0699 12.20963,10.3597 h -24.51175 c 1.01747,-6.3823 5.73482,-10.3597 12.30212,-10.3597 z"
           id="path28306" /></g></g></g></svg>
