<svg width="59" height="49" viewBox="0 0 59 49" fill="none" xmlns="http://www.w3.org/2000/svg">
<path d="M30.3666 0.748805C30.0998 0.606762 29.8022 0.532471 29.5 0.532471C29.1978 0.532471 28.9002 0.606762 28.6334 0.748805L0.977198 15.4988C0.682668 15.6562 0.436407 15.8906 0.264706 16.177C0.093006 16.4634 0.00231421 16.7911 0.00231421 17.125C0.00231421 17.4589 0.093006 17.7866 0.264706 18.073C0.436407 18.3594 0.682668 18.5938 0.977198 18.7512L11.7558 24.5L0.973511 30.2488C0.678981 30.4062 0.432719 30.6406 0.261019 30.927C0.0893185 31.2134 -0.00137329 31.5411 -0.00137329 31.875C-0.00137329 32.2089 0.0893185 32.5366 0.261019 32.823C0.432719 33.1094 0.678981 33.3438 0.973511 33.5012L28.6298 48.2512C28.8965 48.3932 29.1941 48.4675 29.4963 48.4675C29.7985 48.4675 30.0961 48.3932 30.3629 48.2512L58.0191 33.5012C58.3137 33.3438 58.5599 33.1094 58.7316 32.823C58.9033 32.5366 58.994 32.2089 58.994 31.875C58.994 31.5411 58.9033 31.2134 58.7316 30.927C58.5599 30.6406 58.3137 30.4062 58.0191 30.2488L47.2479 24.5L58.0228 18.7512C58.3174 18.5938 58.5636 18.3594 58.7353 18.073C58.907 17.7866 58.9977 17.4589 58.9977 17.125C58.9977 16.7911 58.907 16.4634 58.7353 16.177C58.5636 15.8906 58.3174 15.6562 58.0228 15.4988L30.3666 0.748805ZM29.5 29.7842L5.75989 17.125L29.5 4.4658L53.2401 17.125L29.5 29.7842Z" fill="#FE6916"/>
</svg>
