<svg width="27" height="27" viewBox="0 0 27 27" fill="none" xmlns="http://www.w3.org/2000/svg">
<g clip-path="url(#clip0_26_33)">
<path d="M18.8831 20.5791C22.2851 20.1741 25.245 18.09 25.6163 16.1865C26.2035 13.1861 26.1563 8.86444 26.1563 8.86444C26.1563 3.00881 22.2986 1.29094 22.2986 1.29094C20.3546 0.401625 17.0151 0.0286875 13.5456 0H13.4612C9.99001 0.0286875 6.65213 0.401625 4.70813 1.29094C4.70813 1.29094 0.852194 3.00712 0.852194 8.86444L0.848819 9.98156C0.842069 11.0616 0.837006 12.2597 0.867381 13.5101C1.00744 19.2375 1.92376 24.8839 7.24613 26.2845C9.69976 26.9308 11.8074 27.0658 13.5051 26.973C16.5814 26.8043 18.3094 25.8812 18.3094 25.8812L18.2081 23.6588C18.2081 23.6588 16.0093 24.3506 13.5388 24.2663C11.0919 24.1819 8.51007 24.003 8.11351 21.0127C8.07576 20.7354 8.05715 20.4557 8.05782 20.1758C8.05782 20.1758 10.4608 20.7596 13.5051 20.898C15.3664 20.9824 17.1113 20.79 18.8848 20.5791H18.8831ZM21.6051 16.4109H18.7819V9.52594C18.7819 8.07638 18.1676 7.34062 16.9408 7.34062C15.5841 7.34062 14.904 8.21306 14.904 9.94106V13.7092H12.096V9.93937C12.096 8.21137 11.4159 7.33894 10.0592 7.33894C8.83238 7.33894 8.21813 8.07469 8.21813 9.52594V16.4093H5.39494V9.31837C5.39494 7.86881 5.76619 6.71794 6.50869 5.86575C7.27819 5.01356 8.28394 4.5765 9.53438 4.5765C10.9789 4.5765 12.0724 5.13 12.7963 6.23531L13.5 7.40812L14.2037 6.23531C14.9276 5.13 16.0211 4.5765 17.4673 4.5765C18.7161 4.5765 19.7218 5.01356 20.4896 5.86575C21.2355 6.71794 21.6051 7.86881 21.6051 9.31837V16.4109Z" fill="white"/>
</g>
<defs>
<clipPath id="clip0_26_33">
<rect width="27" height="27" fill="white"/>
</clipPath>
</defs>
</svg>
