<svg width="59" height="59" viewBox="0 0 59 59" fill="none" xmlns="http://www.w3.org/2000/svg">
<path d="M0 1.84375C0 1.35476 0.194252 0.885792 0.540022 0.540022C0.885792 0.194252 1.35476 0 1.84375 0L20.2812 0C20.7702 0 21.2392 0.194252 21.585 0.540022C21.9307 0.885792 22.125 1.35476 22.125 1.84375V21.3027L37.4171 6.06962C37.7628 5.72398 38.2317 5.5298 38.7206 5.5298C39.2095 5.5298 39.6784 5.72398 40.0241 6.06962L53.0594 19.1086C53.2311 19.2799 53.3674 19.4834 53.4603 19.7074C53.5533 19.9313 53.6011 20.1715 53.6011 20.414C53.6011 20.6565 53.5533 20.8967 53.4603 21.1206C53.3674 21.3446 53.2311 21.5481 53.0594 21.7194L37.8374 36.875H57.1562C57.6452 36.875 58.1142 37.0693 58.46 37.415C58.8057 37.7608 59 38.2298 59 38.7188V57.1562C59 57.6452 58.8057 58.1142 58.46 58.46C58.1142 58.8057 57.6452 59 57.1562 59H11.0625C9.60957 59.0017 8.17063 58.7162 6.8284 58.16C5.48616 57.6037 4.26711 56.7876 3.24131 55.7587C1.20253 53.7267 0.0392499 50.978 0 48.0998M22.125 47.3254L49.147 20.4066L38.7151 9.97838L22.125 26.5058V47.3291V47.3254ZM16.5938 47.9375C16.5938 46.4705 16.011 45.0636 14.9737 44.0263C13.9364 42.989 12.5295 42.4062 11.0625 42.4062C9.59552 42.4062 8.18863 42.989 7.15132 44.0263C6.11401 45.0636 5.53125 46.4705 5.53125 47.9375C5.53125 49.4045 6.11401 50.8114 7.15132 51.8487C8.18863 52.886 9.59552 53.4688 11.0625 53.4688C12.5295 53.4688 13.9364 52.886 14.9737 51.8487C16.011 50.8114 16.5938 49.4045 16.5938 47.9375ZM55.3125 55.3125V40.5625H34.1389L19.3336 55.3125H55.3125ZM0 1.84375V47.9191V1.84375Z" fill="#FE6916"/>
</svg>
