<svg width="27" height="27" viewBox="0 0 27 27" fill="none" xmlns="http://www.w3.org/2000/svg">
<path d="M8.48137 25.3124C18.6705 25.3124 24.2443 16.8699 24.2443 9.56132C24.2443 9.32507 24.2443 9.08545 24.2342 8.8492C25.3193 8.06364 26.2559 7.09108 27 5.97707C25.9863 6.42401 24.9122 6.71857 23.8123 6.8512C24.9708 6.15871 25.8385 5.06915 26.2541 3.78501C25.1657 4.42985 23.9743 4.88252 22.7323 5.1232C21.8973 4.23393 20.7924 3.64481 19.5886 3.4471C18.3849 3.24939 17.1496 3.45413 16.074 4.02959C14.9984 4.60506 14.1426 5.51913 13.6391 6.63024C13.1357 7.74134 13.0126 8.98746 13.2891 10.1756C11.0864 10.0651 8.93163 9.49293 6.96438 8.49608C4.99714 7.49923 3.2614 6.1 1.86975 4.38914C1.16326 5.60934 0.947656 7.05269 1.26672 8.42609C1.58577 9.79948 2.41558 11 3.58762 11.7838C2.70935 11.7539 1.85038 11.5181 1.08 11.0953V11.1712C1.08151 12.4494 1.52433 13.688 2.3336 14.6774C3.14287 15.6669 4.26895 16.3465 5.5215 16.6016C5.04607 16.7325 4.55495 16.7978 4.06181 16.7956C3.71416 16.7967 3.3672 16.7645 3.02569 16.6994C3.3797 17.7998 4.06902 18.7619 4.9971 19.4509C5.92518 20.1399 7.04554 20.5214 8.20125 20.5419C6.23794 22.0839 3.81274 22.9203 1.31625 22.9162C0.876354 22.9181 0.436764 22.8927 0 22.8403C2.53381 24.4556 5.47644 25.3134 8.48137 25.3124Z" fill="white"/>
</svg>
